Started on 2012-09-06 13:08:27 - 2012 Sep 06

Checking File ....
File : /home/wwwroot/files/conversion_queue/1346908107fe2da.flv
File Exists : Yes

Preparing file...
format : flv
duration : 30.05
size : 14013563
bitrate : 3643
video_width : 1280
video_height : 544
video_wh_ratio : 2.35294117647
video_codec : h264
video_rate : 24.0266222962
video_bitrate : 3508
video_color : N/A
audio_codec : aac
audio_bitrate : 125
audio_rate : 44100
audio_channels : stereo
path : /home/wwwroot/files/conversion_queue/1346908107fe2da.flv

Converting Video
Conversion Command : /usr/bin/ffmpeg -i /home/wwwroot/files/conversion_queue/1346908107fe2da.flv  -f flv  -vcodec libx264 -vpre normal  -r 25  -s 640x272 -aspect 2.35294117647 -padcolor 000000 -padtop 0 -padbottom 0 -padleft 0 -padright 0  -acodec libfaac -ab 128000  -ar 22050  /home/wwwroot/files/videos/1346908107fe2da.flv  2> /home/wwwroot/files/temp/1346908107b49ef.tmp


Conversion Details

ffmpeg version 0.8.3-4:0.8.3-0ubuntu0.12.04.1, Copyright (c) 2000-2012 the Libav developers
  built on Jun 12 2012 16:37:58 with gcc 4.6.3
*** THIS PROGRAM IS DEPRECATED ***
This program is only provided for compatibility and will be removed in a future release. Please use avconv instead.
[flv @ 0x8fdcaa0] Estimating duration from bitrate, this may be inaccurate

Seems stream 0 codec frame rate differs from container frame rate: 47.96 (4364/91) -> 23.98 (24000/1001)
Input #0, flv, from '/home/wwwroot/files/conversion_queue/1346908107fe2da.flv':
  Metadata:
    encoder         : Lavf52.104.0
  Duration: 00:01:39.53, start: 0.042000, bitrate: 3301 kb/s
    Stream #0.0: Video: h264 (Main), yuv420p, 1280x544 [PAR 1:1 DAR 40:17], 3173 kb/s, 23.98 tbr, 1k tbn, 47.96 tbc
    Stream #0.1: Audio: aac, 44100 Hz, stereo, s16, 128 kb/s
File for preset 'normal' not found
Failed to stat file /home/wwwroot/files/videos/1346908107fe2da.flv!
Failed to stat file /home/wwwroot/files/videos/1346908107fe2da.flv!


 Unknown file details - Unable to get output video details using FFMPEG 


Time Took : 0.7049 seconds

conversion_status : failed
